<?xml version="1.0" encoding="UTF-8" standalone="no"?> <svg id="Layer_1" data-name="Layer 1" viewBox="0 0 933.98505 456.59" version="1.1" sodipodi:docname="ark-builders.svg" width="933.98505" height="456.59" xmlns:inkscape="http://www.inkscape.org/namespaces/inkscape" xmlns:sodipodi="http://sodipodi.sourceforge.net/DTD/sodipodi-0.dtd" xmlns:xlink="http://www.w3.org/1999/xlink" xmlns="http://www.w3.org/2000/svg" xmlns:svg="http://www.w3.org/2000/svg"> <sodipodi:namedview id="namedview39" pagecolor="#ffffff" bordercolor="#000000" borderopacity="0.25" inkscape:showpageshadow="2" inkscape:pageopacity="0.0" inkscape:pagecheckerboard="0" inkscape:deskcolor="#d1d1d1" /> <defs id="defs10"> <linearGradient id="linear-gradient" x1="319.42001" y1="339.03" x2="132.46001" y2="662.84998" gradientUnits="userSpaceOnUse"> <stop offset="0" stop-color="#ffcc19" id="stop2" /> <stop offset="1" stop-color="#ff3b04" id="stop4" /> </linearGradient> <linearGradient id="linear-gradient-2" x1="550.08002" y1="281.95001" x2="405.54001" y2="532.28998" xlink:href="#linear-gradient" gradientTransform="translate(-33.01588,-271.71)" /> <linearGradient id="linear-gradient-3" x1="953.40002" y1="300.10999" x2="749.25" y2="653.71002" xlink:href="#linear-gradient" gradientTransform="translate(-33.01588,-271.71)" /> <linearGradient id="linear-gradient-4" x1="731.78003" y1="278.01001" x2="654.72998" y2="411.47" xlink:href="#linear-gradient" gradientTransform="translate(-33.01588,-271.71)" /> <linearGradient inkscape:collect="always" xlink:href="#linear-gradient" id="linearGradient41" gradientUnits="userSpaceOnUse" x1="319.42001" y1="339.03" x2="132.46001" y2="662.84998" gradientTransform="translate(-33.01588,-271.71)" /> </defs> <title id="title12">Ark-Logo-Text</title> <path d="m 190.73412,18.85 a 32.79,32.79 0 0 0 -59.39,0.1 L 3.9841205,291.96 c -12.95,27.66 7.2499995,59.33 37.7799995,59.33 v 0 a 41.75,41.75 0 0 0 37.92,-24.31 l 9.91,-21.59 36.07,-77.76 19.19,-41.13 a 18.5,18.5 0 0 1 33.56,0.08 l 18.91,41.05 36.06,77.76 10.28,21.9 a 41.73,41.73 0 0 0 37.77,24 v 0 a 41.72,41.72 0 0 0 37.75,-59.5 z" style="fill:url(#linearGradient41)" id="path14" /> <path d="m 558.98412,235.11 a 16.92,16.92 0 0 1 2,-19.82 128.56,128.56 0 0 0 33.18,-86 c 0,-71.2 -58.08,-129.29 -129.28,-129.29 h -172.77 a 38.88,38.88 0 0 0 -38.88,38.88 v 0 a 38.88,38.88 0 0 0 38.88,38.88 h 173.15 c 27.85,0 51.23,22.1 51.57,50 0.34,28.41 -22.27,50.75 -50.59,50.75 h -87.54 a 38.88,38.88 0 0 0 -38.88,38.88 v 1.9 a 38.88,38.88 0 0 0 38.88,38.88 h 70 a 30.54,30.54 0 0 1 26.38,15.12 l 32.22,55.26 a 45.88,45.88 0 0 0 39.68,22.74 v 0 c 35.43,0 57.49,-38.45 39.61,-69 z" style="fill:url(#linear-gradient-2)" id="path16" /> <path d="m 887.76412,351.29 v 0 a 46.12,46.12 0 0 1 -32.55,-13.45 l -95.69,-95.33 a 22.21,22.21 0 0 0 -31.54,0.19 v 0 a 22.23,22.23 0 0 0 -6.34,15.59 v 46.92 a 46.12,46.12 0 0 1 -46.12,46.08 v 0 a 46.13,46.13 0 0 1 -46.13,-46.13 v -69.13 a 60.12,60.12 0 0 1 17.49,-42.44 l 74.76,-75.06 104.61,-105 a 45.76,45.76 0 0 1 32.43,-13.48 v 0 c 40.74,0 61.18,49.24 32.41,78.09 l -70.38,70.55 a 17,17 0 0 0 0,24 l 99.71,100 c 29,29.01 8.41,78.6 -32.66,78.6 z" style="fill:url(#linear-gradient-3)" id="path18" /> <path d="m 721.64412,46.16 v 0 a 49.43,49.43 0 0 1 -14.4,34.87 l -63.93,64.18 a 8.17,8.17 0 0 1 -14,-5.76 V 46.16 a 46.14,46.14 0 0 1 46.14,-46.14 v 0 a 46.15,46.15 0 0 1 46.19,46.14 z" style="fill:url(#linear-gradient-4)" id="path20" /> <path d="m 203.17412,456.56 v -56.44 h 24.91 a 17,17 0 0 1 16.71,16.78 16.53,16.53 0 0 1 -3.61,10.16 16.47,16.47 0 0 1 -10.2,29.5 z m 22,-34.39 a 4.9,4.9 0 0 0 0,-9.79 h -7.19 v 9.79 z m 2.78,22.2 a 4.89,4.89 0 0 0 4.9,-4.89 5,5 0 0 0 -4.9,-4.89 h -9.97 v 9.78 z" style="fill:#292c3d" id="path22" /> <path d="m 293.86412,434.06 a 7.38,7.38 0 0 0 14.75,0 v -33.94 h 14.91 v 34.17 a 22.28,22.28 0 0 1 -44.54,0 v -34.17 h 14.9 z" style="fill:#292c3d" id="path24" /> <path d="m 357.31412,400.12 h 14.82 v 56.44 h -14.82 z" style="fill:#292c3d" id="path26" /> <path d="m 406.08412,400.12 h 14.82 v 41.54 h 20.32 v 14.9 h -35.14 z" style="fill:#292c3d" id="path28" /> <path d="m 474.41412,400.12 h 20.92 a 28.22,28.22 0 1 1 0,56.44 h -20.92 z m 14.75,41.84 h 6.25 a 13.36,13.36 0 1 0 0,-26.72 h -6.25 z" style="fill:#292c3d" id="path30" /> <path d="m 556.37412,400.12 h 35.07 v 12.26 h -20.24 v 9.19 h 17.91 v 12.49 h -17.91 v 10.38 h 20.24 v 12.12 h -35.07 z" style="fill:#292c3d" id="path32" /> <path d="m 657.37412,456.56 -8.73,-15 h -9.18 v 15 h -14.83 v -56.44 h 23.78 a 20.72,20.72 0 0 1 14.08,36 l 12,20.47 z m -17.91,-27.77 h 9.18 a 8.09,8.09 0 1 0 0,-16.18 h -9.18 z" style="fill:#292c3d" id="path34" /> <path d="m 717.69412,417.43 a 4.33,4.33 0 0 0 -4.29,-4.29 4.27,4.27 0 0 0 -4.21,4.29 4.2,4.2 0 0 0 4.21,4.21 17.46,17.46 0 1 1 -17.42,17.39 h 13.17 a 4.23,4.23 0 0 0 4.21,4.29 4.28,4.28 0 0 0 4.29,-4.22 4.34,4.34 0 0 0 -4.29,-4.29 17.35,17.35 0 1 1 17.39,-17.38 z" style="fill:#292c3d" id="path36" /> </svg>
