<?xml version="1.0" encoding="UTF-8" standalone="no"?>
<svg
   viewBox="0 0 250.94 347.73019"
   version="1.1"
   id="svg32"
   sodipodi:docname="navigator.svg"
   width="250.94"
   height="347.73019"
   xmlns:inkscape="http://www.inkscape.org/namespaces/inkscape"
   xmlns:sodipodi="http://sodipodi.sourceforge.net/DTD/sodipodi-0.dtd"
   xmlns:xlink="http://www.w3.org/1999/xlink"
   xmlns="http://www.w3.org/2000/svg"
   xmlns:svg="http://www.w3.org/2000/svg">
  <sodipodi:namedview
     id="namedview34"
     pagecolor="#ffffff"
     bordercolor="#000000"
     borderopacity="0.25"
     inkscape:showpageshadow="2"
     inkscape:pageopacity="0.0"
     inkscape:pagecheckerboard="0"
     inkscape:deskcolor="#d1d1d1" />
  <defs
     id="defs13">
    <linearGradient
       id="linear-gradient"
       x1="314.94"
       y1="91.190002"
       x2="319.57999"
       y2="356.84"
       gradientUnits="userSpaceOnUse">
      <stop
         offset="0"
         stop-color="#13b1ea"
         id="stop2" />
      <stop
         offset="1"
         stop-color="#2340e8"
         id="stop4" />
    </linearGradient>
    <linearGradient
       id="linear-gradient-2"
       x1="256"
       y1="343.91"
       x2="256"
       y2="263.38"
       xlink:href="#linear-gradient" />
    <linearGradient
       id="linear-gradient-3"
       x1="193.27"
       y1="344.72"
       x2="193.27"
       y2="80.620003"
       xlink:href="#linear-gradient" />
    <linearGradient
       id="linear-gradient-4"
       x1="220.45"
       y1="373.92999"
       x2="183.64999"
       y2="437.67001"
       xlink:href="#linear-gradient" />
    <linearGradient
       id="linear-gradient-5"
       x1="265.85999"
       y1="362.69"
       x2="237.41"
       y2="411.97"
       xlink:href="#linear-gradient" />
    <linearGradient
       id="linear-gradient-6"
       x1="345.25"
       y1="366.26999"
       x2="305.06"
       y2="435.87"
       xlink:href="#linear-gradient" />
    <linearGradient
       id="linear-gradient-7"
       x1="301.62"
       y1="361.92001"
       x2="286.45999"
       y2="388.19"
       xlink:href="#linear-gradient" />
    <linearGradient
       inkscape:collect="always"
       xlink:href="#linear-gradient"
       id="linearGradient36"
       gradientUnits="userSpaceOnUse"
       x1="314.94"
       y1="91.190002"
       x2="319.57999"
       y2="356.84" />
  </defs>
  <title
     id="title15">Ark-Navigator-Icon</title>
  <g
     id="Layer_1"
     data-name="Layer 1"
     transform="translate(-130.53,-82.17)">
    <polygon
       points="256,266.83 381.47,349.85 256,82.17 "
       style="fill:url(#linearGradient36)"
       id="polygon17" />
    <polygon
       points="256,310.48 381.47,349.85 256,266.83 130.53,349.85 "
       style="fill:url(#linear-gradient-2)"
       id="polygon19" />
    <polygon
       points="256,266.83 256,82.17 130.53,349.85 "
       style="fill:url(#linear-gradient-3)"
       id="polygon21" />
    <path
       d="m 201.62,364.39 a 6.47,6.47 0 0 0 -5.84,-3.71 6.44,6.44 0 0 0 -5.85,3.73 l -25.08,53.74 a 8.21,8.21 0 0 0 7.45,11.68 v 0 a 8.21,8.21 0 0 0 7.46,-4.78 l 2,-4.25 7.1,-15.31 3.78,-8.09 a 3.65,3.65 0 0 1 6.61,0 l 3.72,8.08 7.03,15.32 2,4.31 a 8.21,8.21 0 0 0 7.44,4.72 v 0 a 8.21,8.21 0 0 0 7.43,-11.71 z"
       style="fill:url(#linear-gradient-4)"
       id="path23" />
    <path
       d="m 274.11,407 a 3.33,3.33 0 0 1 0.39,-3.91 25.38,25.38 0 0 0 -18.92,-42.37 h -34 a 7.66,7.66 0 0 0 -7.66,7.65 v 0 a 7.66,7.66 0 0 0 7.66,7.66 h 34.08 a 10.08,10.08 0 0 1 10.15,9.83 9.83,9.83 0 0 1 -9.95,10 h -17.24 a 7.66,7.66 0 0 0 -7.65,7.65 v 0.37 a 7.66,7.66 0 0 0 7.65,7.66 h 13.78 a 6,6 0 0 1 5.2,3 l 6.34,10.88 a 9,9 0 0 0 7.8,4.48 v 0 a 9,9 0 0 0 7.8,-13.59 z"
       style="fill:url(#linear-gradient-5)"
       id="path25" />
    <path
       d="m 338.83,429.83 v 0 a 9.1,9.1 0 0 1 -6.41,-2.64 l -18.83,-18.77 a 4.37,4.37 0 0 0 -6.21,0 v 0 a 4.37,4.37 0 0 0 -1.25,3.06 v 9.23 a 9.08,9.08 0 0 1 -9.08,9.08 v 0 a 9.08,9.08 0 0 1 -9.08,-9.08 v -13.57 a 11.86,11.86 0 0 1 3.45,-8.36 L 306.13,384 326.72,363.32 a 9,9 0 0 1 6.38,-2.65 v 0 a 9,9 0 0 1 6.38,15.37 L 325.63,390 a 3.34,3.34 0 0 0 0,4.72 l 19.63,19.67 a 9.08,9.08 0 0 1 -6.43,15.44 z"
       style="fill:url(#linear-gradient-6)"
       id="path27" />
    <path
       d="m 306.13,369.76 v 0 a 9.73,9.73 0 0 1 -2.84,6.87 l -12.58,12.63 a 1.61,1.61 0 0 1 -2.75,-1.13 v -18.37 a 9.09,9.09 0 0 1 9.08,-9.08 v 0 a 9.09,9.09 0 0 1 9.09,9.08 z"
       style="fill:url(#linear-gradient-7)"
       id="path29" />
  </g>
</svg>
